<?xml version="1.0" standalone="no"?>
<!DOCTYPE svg PUBLIC "-//W3C//DTD SVG 20010904//EN"
 "http://www.w3.org/TR/2001/REC-SVG-20010904/DTD/svg10.dtd">
<svg version="1.0" xmlns="http://www.w3.org/2000/svg"
 width="1280.000000pt" height="654.000000pt" viewBox="0 0 1280.000000 654.000000"
 preserveAspectRatio="xMidYMid meet">

<g transform="translate(0.000000,654.000000) scale(0.100000,-0.100000)"
fill="#000000" stroke="none">
<path d="M3800 6519 c-1389 -3 -2810 -7 -3158 -8 l-633 -1 7 -3247 c4 -1787 8
-3249 9 -3251 2 -2 65 41 141 96 77 54 360 255 629 447 270 192 706 502 970
690 264 188 548 389 630 448 83 58 182 129 220 157 39 28 78 56 87 63 16 10
-5 26 -165 128 -411 262 -1071 684 -1367 874 -173 111 -438 279 -588 375 -150
95 -271 177 -270 181 2 5 111 72 243 150 435 257 848 501 980 579 404 238 489
289 690 407 121 71 348 206 505 298 157 92 443 261 635 375 193 114 429 254
525 310 225 132 414 243 672 397 113 68 212 123 219 123 7 0 87 -48 178 -107
91 -59 321 -206 511 -328 190 -122 485 -312 655 -422 614 -396 659 -424 665
-426 6 -2 229 155 756 530 122 87 347 247 500 356 153 109 464 330 690 490
225 161 421 300 435 309 23 16 -59 17 -1411 15 -789 0 -2571 -4 -3960 -8z"/>
<path d="M4460 5104 c-291 -36 -581 -153 -805 -322 -89 -68 -239 -217 -305
-302 -168 -220 -275 -478 -311 -747 -16 -125 -6 -393 20 -511 101 -458 403
-854 809 -1065 254 -131 452 -184 732 -194 117 -4 184 -1 270 11 381 55 681
204 945 470 334 336 483 730 454 1206 -22 362 -185 714 -454 984 -126 127
-254 218 -420 301 -251 125 -419 165 -705 170 -107 2 -211 1 -230 -1z m1505
-1315 c9 -28 14 -53 11 -57 -4 -3 -55 -21 -114 -40 -155 -49 -592 -185 -697
-217 -49 -15 -83 -30 -75 -33 56 -18 666 -295 679 -307 7 -7 -41 -105 -51
-105 -5 0 -95 40 -201 89 -216 100 -398 180 -534 236 l-92 37 -180 -51 c-483
-138 -829 -211 -1002 -211 -139 0 -188 17 -265 94 -87 87 -119 152 -118 241 0
90 25 162 75 219 47 53 136 99 223 115 232 42 617 -33 1117 -219 l157 -59 273
84 c151 46 380 117 509 159 129 41 243 75 252 75 11 1 22 -15 33 -50z"/>
<path d="M3635 3676 c-115 -28 -175 -86 -189 -183 -4 -33 -1 -57 13 -89 26
-58 100 -130 147 -143 76 -21 198 -12 409 30 229 46 681 167 668 179 -13 12
-297 105 -424 139 -282 75 -496 98 -624 67z"/>
<path d="M7455 4144 c-233 -38 -378 -160 -430 -361 -29 -113 -13 -221 52 -345
61 -117 164 -189 388 -273 55 -20 125 -46 155 -58 202 -76 280 -153 280 -275
0 -133 -104 -233 -274 -263 -127 -22 -276 28 -356 118 -35 41 -91 141 -121
220 -8 22 -14 24 -61 21 l-53 -3 -3 -65 c-2 -36 -1 -120 3 -186 8 -141 -7
-125 158 -174 202 -58 425 -63 564 -11 131 48 256 149 304 246 57 116 70 330
26 433 -20 49 -96 150 -136 181 -56 45 -209 115 -349 160 -149 49 -220 83
-270 131 -98 94 -106 213 -20 306 75 81 207 107 325 62 103 -38 167 -120 226
-291 6 -15 16 -18 64 -15 l58 3 -2 100 c-3 88 -16 210 -29 256 -4 16 -76 43
-179 66 -64 14 -270 25 -320 17z"/>
<path d="M8780 4144 c-141 -26 -240 -75 -316 -156 -62 -68 -88 -113 -109 -195
-40 -154 4 -324 115 -447 62 -67 164 -121 380 -201 174 -65 253 -102 298 -140
43 -36 82 -119 82 -174 0 -55 -36 -135 -76 -173 -76 -71 -216 -108 -330 -89
-149 26 -241 104 -313 264 l-44 98 -51 -3 -51 -3 -3 -166 c-1 -92 2 -178 7
-191 8 -21 27 -30 133 -61 305 -89 525 -72 724 58 108 70 156 131 190 240 23
75 26 97 23 202 -4 109 -6 123 -36 183 -49 99 -128 172 -248 230 -55 27 -152
65 -215 86 -212 68 -289 116 -334 206 -43 86 -30 172 36 237 54 54 101 74 188
79 142 8 241 -52 308 -186 21 -42 43 -92 50 -109 11 -32 13 -33 67 -33 42 0
57 4 62 16 6 17 -13 230 -28 310 -11 57 -3 52 -165 94 -76 20 -287 34 -344 24z"/>
<path d="M10647 4103 c-8 -43 8 -73 40 -73 16 0 60 -7 98 -15 86 -18 120 -49
110 -99 -9 -43 -82 -268 -110 -341 -42 -108 -56 -148 -101 -275 -68 -191 -135
-360 -144 -360 -4 0 -13 15 -21 33 -7 17 -77 177 -155 354 -134 302 -200 463
-229 558 -24 77 13 110 149 129 l81 11 3 49 3 49 -158 -9 c-200 -11 -336 -11
-540 0 l-163 8 0 -51 c0 -34 4 -51 13 -51 47 -1 143 -21 164 -35 30 -20 126
-216 233 -475 39 -96 80 -193 90 -215 147 -324 252 -569 324 -762 l28 -73 63
0 c50 0 64 3 70 18 4 9 24 67 45 127 20 61 108 290 194 510 87 220 161 411
166 425 20 65 143 349 165 382 26 39 78 70 173 103 52 19 52 19 52 62 0 43 -1
43 -27 36 -35 -10 -549 -10 -584 0 -23 6 -27 3 -32 -20z"/>
<path d="M11332 4086 c0 -47 17 -63 76 -71 146 -20 164 -41 174 -213 14 -249
28 -1120 19 -1146 -12 -30 -33 -42 -136 -76 l-80 -27 -3 -43 -3 -43 88 9 c95
10 480 12 631 4 105 -6 114 0 110 60 l-3 35 -124 15 -125 15 -7 30 c-4 17 -9
321 -12 677 -4 483 -2 650 6 662 40 52 228 47 334 -7 44 -23 100 -99 118 -160
9 -30 15 -91 15 -148 0 -127 -22 -192 -86 -248 -59 -52 -118 -71 -217 -71
l-80 0 6 -41 c7 -52 19 -64 92 -91 83 -30 232 -36 311 -13 159 46 272 147 327
290 24 64 34 208 18 272 -32 127 -130 259 -224 302 -127 58 -194 63 -732 52
-110 -2 -266 0 -346 4 l-147 8 0 -37z"/>
<path d="M3742 1853 c-51 -25 -82 -78 -82 -138 0 -78 13 -94 196 -243 70 -57
99 -108 90 -156 -9 -48 -55 -87 -109 -93 -55 -6 -95 13 -138 67 -31 38 -32 39
-61 24 -31 -16 -31 -18 16 -78 33 -43 114 -86 161 -86 51 0 104 20 141 52 46
41 64 77 64 133 0 82 -42 138 -185 244 -38 29 -77 64 -87 79 -44 66 -5 142 72
142 50 0 91 -20 114 -55 l17 -26 30 21 29 22 -21 26 c-41 53 -97 82 -158 82
-31 0 -71 -8 -89 -17z"/>
<path d="M4371 1848 c-77 -31 -154 -106 -193 -186 -56 -118 -41 -263 37 -365
104 -136 301 -183 459 -109 234 110 284 410 97 585 -75 70 -126 90 -246 94
-84 2 -108 -1 -154 -19z m278 -72 c106 -54 154 -129 159 -251 4 -92 -14 -147
-69 -209 -100 -115 -303 -128 -420 -28 -183 157 -111 450 126 513 52 14 150 2
204 -25z"/>
<path d="M5241 1854 c-91 -33 -168 -100 -212 -186 -31 -59 -38 -195 -15 -270
23 -72 76 -142 139 -182 78 -49 120 -61 227 -60 117 1 187 25 257 88 l48 44
-25 20 -24 20 -43 -35 c-60 -49 -129 -73 -213 -73 -131 0 -226 55 -279 162
-74 148 -14 321 137 395 48 24 69 28 137 28 95 0 149 -19 215 -75 l46 -38 24
20 23 19 -39 40 c-21 22 -64 52 -94 66 -47 23 -71 27 -160 30 -78 2 -117 -1
-149 -13z"/>
<path d="M5820 1515 l0 -345 35 0 35 0 0 345 0 345 -35 0 -35 0 0 -345z"/>
<path d="M6050 1515 l0 -345 201 0 200 0 -3 33 -3 32 -155 2 c-85 1 -158 3
-162 3 -5 0 -8 61 -8 135 l0 135 165 0 165 0 0 30 0 30 -165 0 -165 0 0 110 0
110 165 0 165 0 0 35 0 35 -200 0 -200 0 0 -345z"/>
<path d="M6578 1554 c-2 -170 -2 -326 0 -348 l3 -38 177 3 c170 4 179 5 234
32 132 65 199 217 168 382 -23 121 -107 215 -224 251 -31 9 -111 18 -203 21
l-152 6 -3 -309z m294 225 c72 -15 119 -41 158 -85 49 -57 64 -99 64 -189 1
-67 -3 -89 -25 -130 -28 -56 -91 -109 -147 -125 -20 -6 -92 -13 -159 -17
l-123 -6 0 281 0 282 90 0 c49 0 113 -5 142 -11z"/>
<path d="M7573 1848 c-12 -20 -323 -667 -323 -673 0 -3 16 -5 36 -5 35 0 35 0
87 110 l52 109 158 1 158 0 52 -110 52 -110 37 0 37 0 -33 73 c-125 269 -294
617 -300 617 -3 0 -8 -6 -13 -12z m126 -375 c1 -10 -28 -13 -114 -13 -65 0
-115 4 -115 9 0 6 26 62 57 126 l57 117 58 -114 c31 -62 57 -119 57 -125z"/>
<path d="M8030 1514 l0 -346 183 4 c173 4 185 6 239 32 238 114 230 508 -12
615 -58 25 -175 41 -306 41 l-104 0 0 -346z m305 264 c67 -13 140 -58 172
-107 79 -117 54 -307 -49 -382 -55 -39 -92 -48 -235 -56 l-123 -6 0 281 0 282
88 0 c49 0 115 -5 147 -12z"/>
<path d="M8760 1515 l0 -345 200 0 200 0 0 35 0 36 -152 -1 c-84 -1 -159 -1
-165 0 -10 0 -13 34 -13 135 l0 135 165 0 165 0 0 30 0 30 -162 2 -163 3 -3
108 -3 107 171 0 170 0 0 35 0 35 -205 0 -205 0 0 -345z"/>
<path d="M9560 1514 l0 -346 178 4 c134 4 188 9 223 22 174 64 248 300 154
486 -28 55 -92 115 -149 140 -54 24 -174 40 -302 40 l-104 0 0 -346z m305 264
c67 -13 140 -58 172 -107 79 -117 54 -307 -49 -382 -55 -39 -92 -48 -235 -56
l-123 -6 0 281 0 282 88 0 c49 0 115 -5 147 -12z"/>
<path d="M10290 1515 l0 -345 200 0 200 0 0 35 0 36 -162 -2 -163 -1 -3 136
-3 136 166 0 165 0 0 30 0 30 -162 2 -163 3 -3 108 -3 107 171 0 170 0 0 35 0
35 -205 0 -205 0 0 -345z"/>
<path d="M2240 863 c-18 -7 -50 -34 -50 -42 0 -3 7 -14 15 -25 13 -17 15 -17
37 -2 30 21 62 20 127 -4 57 -22 94 -20 143 8 24 14 25 17 12 37 -14 21 -17
22 -51 10 -31 -11 -45 -10 -83 2 -50 17 -127 25 -150 16z"/>
<path d="M1677 716 c-69 -25 -107 -78 -107 -151 0 -62 34 -110 133 -189 97
-78 127 -107 146 -143 42 -81 -45 -177 -144 -159 -34 7 -92 53 -112 89 -8 16
-13 17 -36 6 -15 -7 -27 -18 -27 -26 0 -21 77 -99 114 -117 43 -20 147 -21
185 -2 41 22 89 80 100 123 24 88 -20 162 -154 263 -133 100 -162 153 -115
213 40 51 116 44 177 -15 31 -30 33 -30 58 -14 14 9 25 20 25 25 0 19 -90 90
-126 100 -50 14 -70 13 -117 -3z"/>
<path d="M3073 720 c-135 -27 -244 -133 -279 -272 -42 -161 41 -334 196 -407
79 -37 219 -42 305 -10 82 31 173 121 203 202 34 89 31 203 -7 282 -53 112
-151 185 -278 205 -66 11 -81 11 -140 0z m212 -91 c59 -28 113 -80 140 -134
28 -57 28 -203 0 -260 -26 -54 -81 -106 -140 -135 -69 -33 -200 -35 -261 -3
-93 49 -146 118 -165 215 -28 140 66 295 205 338 53 16 165 6 221 -21z"/>
<path d="M5117 720 c-110 -19 -223 -106 -270 -208 -18 -38 -22 -65 -22 -147 0
-89 3 -106 28 -157 36 -74 119 -150 195 -178 49 -19 73 -21 167 -18 96 3 117
7 167 32 31 16 71 44 90 63 l33 34 -23 19 c-23 19 -23 19 -82 -24 -72 -53
-137 -71 -230 -63 -83 7 -152 40 -204 97 -55 61 -70 102 -70 195 -1 68 3 88
26 131 91 174 341 219 486 89 47 -42 48 -43 70 -25 30 24 28 33 -13 69 -50 44
-121 77 -190 90 -65 12 -88 12 -158 1z"/>
<path d="M12320 721 c-193 -41 -321 -225 -290 -415 13 -81 46 -140 112 -201
76 -71 141 -95 253 -95 112 0 177 24 254 96 79 73 114 149 114 253 0 42 -5 94
-12 116 -33 102 -114 186 -216 224 -61 23 -163 33 -215 22z m184 -82 c68 -25
139 -92 167 -156 29 -66 29 -172 0 -234 -33 -69 -76 -115 -139 -146 -48 -23
-70 -28 -137 -28 -68 0 -89 4 -137 28 -62 31 -117 89 -144 152 -19 46 -21 149
-4 201 53 162 232 244 394 183z"/>
<path d="M2330 658 c-23 -51 -183 -383 -268 -555 l-40 -83 39 0 40 0 54 115
54 115 153 0 153 0 58 -115 c56 -114 57 -115 92 -115 19 0 35 2 35 4 0 2 -39
84 -86 182 -47 99 -115 240 -150 314 -72 153 -89 183 -101 187 -5 2 -20 -20
-33 -49z m94 -214 c31 -64 56 -120 56 -125 0 -5 -52 -9 -115 -9 -63 0 -115 4
-115 9 0 12 108 241 114 241 2 0 29 -52 60 -116z"/>
<path d="M3890 704 c0 -6 52 -126 234 -538 34 -76 66 -138 71 -138 5 0 71 139
147 308 76 170 144 324 153 342 l15 32 -39 0 -38 0 -118 -265 c-65 -146 -120
-264 -122 -262 -2 2 -54 120 -117 263 l-113 259 -37 3 c-20 2 -36 0 -36 -4z"/>
<path d="M4620 365 l0 -345 35 0 35 0 0 345 0 345 -35 0 -35 0 0 -345z"/>
<path d="M5650 365 l0 -345 200 0 200 0 0 35 0 35 -165 0 -165 0 0 135 0 135
165 0 165 0 0 35 0 35 -165 0 -165 0 0 105 0 105 165 0 165 0 0 35 0 35 -200
0 -200 0 0 -345z"/>
<path d="M6180 365 l0 -345 35 0 35 0 2 259 3 259 230 -259 c127 -142 233
-259 238 -259 4 0 7 155 7 345 l0 345 -35 0 -35 0 0 -262 -1 -263 -32 35 c-17
20 -64 72 -103 115 -192 217 -336 375 -340 375 -2 0 -4 -155 -4 -345z"/>
<path d="M6832 678 l3 -33 78 -3 77 -3 0 -309 0 -310 35 0 35 0 0 310 0 309
78 3 77 3 3 33 3 32 -196 0 -196 0 3 -32z"/>
<path d="M7320 365 l0 -345 200 0 200 0 0 35 0 35 -165 0 -165 0 0 135 0 135
165 0 165 0 0 35 0 35 -165 0 -165 0 0 105 0 105 164 0 164 0 5 27 c3 16 3 31
0 35 -2 5 -94 8 -204 8 l-199 0 0 -345z"/>
<path d="M8120 366 l0 -346 137 0 c175 0 251 13 311 54 102 68 147 170 140
311 -7 143 -80 248 -204 295 -49 19 -86 23 -221 28 l-163 5 0 -347z m368 244
c104 -45 158 -145 150 -274 -5 -76 -24 -123 -67 -169 -48 -53 -93 -68 -232
-79 -70 -6 -135 -8 -144 -5 -13 6 -15 44 -15 283 l0 276 128 -4 c105 -4 136
-8 180 -28z"/>
<path d="M8850 365 l0 -345 200 0 200 0 0 35 0 35 -165 0 -165 0 0 135 0 135
165 0 165 0 0 35 0 35 -165 0 -165 0 0 105 0 105 165 0 165 0 0 35 0 35 -200
0 -200 0 0 -345z"/>
<path d="M9650 366 l0 -346 35 0 35 0 0 158 0 159 108 6 c122 7 165 19 206 56
86 78 70 219 -32 278 -43 26 -55 27 -199 31 l-153 4 0 -346z m309 259 c29 -15
61 -68 61 -103 0 -27 -41 -84 -70 -99 -15 -8 -66 -13 -127 -13 l-103 0 0 115
0 115 105 0 c73 0 115 -5 134 -15z"/>
<path d="M10451 608 c-71 -150 -182 -379 -235 -487 -25 -52 -46 -95 -46 -97 0
-2 17 -4 38 -4 l38 0 54 115 53 115 154 0 154 0 56 -115 56 -115 38 0 37 0
-35 73 c-36 72 -121 250 -235 490 -34 70 -65 127 -70 127 -4 0 -30 -46 -57
-102z m119 -168 c33 -66 60 -122 60 -125 0 -3 -54 -5 -121 -5 -66 0 -119 4
-117 9 10 27 112 241 115 241 1 0 30 -54 63 -120z"/>
<path d="M10962 433 c3 -303 4 -308 65 -365 43 -41 94 -58 176 -58 64 0 79 4
115 27 98 67 104 92 110 411 l4 262 -35 0 -36 0 -3 -262 c-3 -242 -5 -266 -23
-297 -45 -77 -135 -102 -219 -62 -81 40 -81 39 -84 349 l-3 272 -35 0 -35 0 3
-277z"/>
<path d="M11600 365 l0 -345 170 0 170 0 0 35 0 35 -135 0 -135 0 0 310 0 310
-35 0 -35 0 0 -345z"/>
</g>
</svg>
